# xmcd
#
# Track frame offsets: 
#        150
#        13562
#        25422
#        36345
#        50585
#        63545
#        74575
#        87457
#        104747
#        116950
#        135672
#
# Disc length: 1950 seconds
#
# Revision: 0
# Processed by: cddbd v1.5.2PL0 Copyright (c) Steve Scherf et al.
# Submitted via: ExactAudioCopy v1.0b2
#
DISCID=a9079c0b
DTITLE=Harry "The Hipster" Gibson - Everybody's Crazy But Me
DYEAR=1900
DGENRE=Blues
TTITLE0=Hipster's Boogie
TTITLE1=Inflationary Blues
TTITLE2=Wild Hip Rap
TTITLE3=Solution for Pollution
TTITLE4=Homegrown
TTITLE5=Mocha
TTITLE6=Stop That Dancing up There
TTITLE7=Keep Venice Nude
TTITLE8=Putsi-Putsi
TTITLE9=Male Chauvinistic Pig
TTITLE10=Ragtime Raggedy Ann
EXTD=
EXTT0=
EXTT1=
EXTT2=
EXTT3=
EXTT4=
EXTT5=
EXTT6=
EXTT7=
EXTT8=
EXTT9=
EXTT10=
PLAYORDER=
